<svg width="350" height="150" viewBox="0 0 350 150" fill="none" xmlns="http://www.w3.org/2000/svg">
<path d="M32.5 51.3027C36.1523 51.3027 39.2676 51.9375 41.8457 53.207V62.1719L41.7871 62.2305C40.6934 60.5508 38.3887 59.4375 34.873 58.8906C33.8379 58.7148 32.5293 58.627 30.9473 58.627C29.3652 58.627 27.8125 58.9297 26.2891 59.5352C24.7656 60.1211 23.5156 60.9609 22.5391 62.0547C20.6445 64.1836 19.6973 67.2207 19.6973 71.166C19.6973 75.7559 20.8984 79.1738 23.3008 81.4199C25.293 83.2949 27.9297 84.2324 31.2109 84.2324C34.9219 84.2324 37.9297 83.4414 40.2344 81.8594C41.0742 81.293 41.7871 80.5898 42.373 79.75L42.4609 79.8086V88.0117C39.4727 90.4922 35.4492 91.7324 30.3906 91.7324C24.4336 91.7324 19.7656 89.8379 16.3867 86.0488C13.1445 82.4355 11.5234 77.6504 11.5234 71.6934C11.5234 65.3848 13.3008 60.4141 16.8555 56.7812C20.4492 53.1289 25.6641 51.3027 32.5 51.3027ZM58.0176 91C58.2715 90.2383 58.3984 88.4609 58.3984 85.668V77.5234C55.0195 70.082 52.8613 65.4434 51.9238 63.6074C50.9863 61.752 50.1953 60.2871 49.5508 59.2129C47.5195 55.7754 46.2891 53.8027 45.8594 53.2949C45.4492 52.7871 45.0293 52.3672 44.5996 52.0352H54.707C54.9219 52.4258 55.2148 53.002 55.5859 53.7637L62.6758 68.7344C63.0078 67.9141 63.3984 66.9961 63.8477 65.9805C68.1055 56.8203 70.2637 52.1719 70.3223 52.0352H79.9902C78.9941 52.8359 77.7734 54.5156 76.3281 57.0742C75.8789 57.8359 75.4297 58.7051 74.9805 59.6816L68.3594 73.4805C67.6172 75.1406 66.9824 76.6348 66.4551 77.9629V86.3711C66.4551 88.3242 66.5723 89.8672 66.8066 91H58.0176ZM109.434 88.1582C108.008 89.291 106.152 90.1699 103.867 90.7949C101.582 91.4199 98.7695 91.7324 95.4297 91.7324C92.1094 91.7324 88.5742 91.4297 84.8242 90.8242V52.2109C88.6133 51.6055 91.8945 51.3027 94.668 51.3027C97.4609 51.3027 99.7461 51.5664 101.523 52.0938C103.32 52.6211 104.785 53.334 105.918 54.2324C108.145 55.9707 109.258 58.2266 109.258 61C109.258 63.7539 108.252 66.0391 106.24 67.8555C108.623 68.5977 110.469 70.0039 111.777 72.0742C112.969 73.9297 113.564 75.9902 113.564 78.2559C113.564 80.502 113.232 82.4258 112.568 84.0273C111.924 85.6289 110.879 87.0059 109.434 88.1582ZM92.5879 66.7715C93.4082 66.9082 94.4336 66.9766 95.6641 66.9766C96.8945 66.9766 97.9004 66.8203 98.6816 66.5078C99.4824 66.1758 100.098 65.7656 100.527 65.2773C101.23 64.4766 101.582 63.3633 101.582 61.9375C101.582 58.9492 99.8242 57.4551 96.3086 57.4551C94.8242 57.4551 93.584 57.5137 92.5879 57.6309V66.7715ZM96.9238 73.041C95.2832 73.041 93.8379 73.1484 92.5879 73.3633V84.877C93.9551 85.2285 95.3906 85.4043 96.8945 85.4043C98.3984 85.4043 99.7168 85.2285 100.85 84.877C102.002 84.5059 102.969 84.0078 103.75 83.3828C105.332 82.0938 106.123 80.4531 106.123 78.4609C106.123 74.8477 103.057 73.041 96.9238 73.041ZM139.521 83.9688C140.732 83.9688 141.572 83.8516 142.041 83.6172L142.158 83.6465L141.865 91H119.922V51.8301C120.449 51.8691 121.035 51.8984 121.68 51.918L123.73 51.9766C125.098 52.0156 126.582 52.0352 128.184 52.0352C132.656 52.0352 137.08 51.957 141.455 51.8008C141.24 53.5195 141.133 55.8145 141.133 58.6855C141.133 58.998 141.152 59.2324 141.191 59.3887L141.133 59.4766C140.117 59.1836 138.672 59.0371 136.797 59.0371H127.568V66.5078H134.512C136.66 66.5078 137.949 66.4492 138.379 66.332L138.467 73.5684C137.529 73.4707 136.318 73.4219 134.834 73.4219H127.568V83.9688H139.521ZM162.578 75.8535C161.992 75.8926 161.367 75.9121 160.703 75.9121C160.039 75.9121 159.053 75.8633 157.744 75.7656V91H149.98V51.8301C152.715 51.4785 156.074 51.3027 160.059 51.3027C165.488 51.3027 169.531 52.3086 172.188 54.3203C174.863 56.3125 176.201 59.3984 176.201 63.5781C176.201 66.8203 174.98 69.5938 172.539 71.8984C171.738 72.6406 170.82 73.2852 169.785 73.832L175.762 86.4297C176.934 89.0273 177.832 90.5703 178.457 91.0586L178.311 91.2051C176.416 90.8926 173.438 90.9023 169.375 91.2344L162.578 75.8535ZM160.615 58.2168C159.619 58.2168 158.662 58.2656 157.744 58.3633V69.5547C158.701 69.6914 159.824 69.7598 161.113 69.7598C162.402 69.7598 163.486 69.6523 164.365 69.4375C165.244 69.2031 166.006 68.8516 166.65 68.3828C168.037 67.3477 168.73 65.7949 168.73 63.7246C168.73 61.6543 168.008 60.1992 166.562 59.3594C165.215 58.5977 163.232 58.2168 160.615 58.2168ZM198.906 91.1172C198.32 91.0391 197.324 91 195.918 91H192.52C191.855 91 191.309 91.0195 190.879 91.0586L190.85 91C190.928 90.8633 190.967 90.707 190.967 90.5312C190.967 90.3555 190.947 90.1699 190.908 89.9746C190.889 89.7793 190.811 89.4277 190.674 88.9199C190.557 88.4121 190.371 87.6797 190.117 86.7227L180.156 51.918C181.406 51.9961 182.92 52.0352 184.697 52.0352C186.475 52.0352 187.627 51.957 188.154 51.8008L195.068 78.3145L201.807 51.918C202.1 51.9375 202.363 51.957 202.598 51.9766H203.242C203.887 52.0156 204.697 52.0352 205.674 52.0352C206.65 52.0352 207.656 51.957 208.691 51.8008L215.547 78.3145L221.436 51.918C222.607 51.9961 224.141 52.0352 226.035 52.0352C227.93 52.0352 229.082 51.957 229.492 51.8008L221.055 82.709C219.98 86.2637 219.414 88.373 219.355 89.0371C219.297 89.7012 219.268 90.1602 219.268 90.4141C219.268 90.668 219.307 90.873 219.385 91.0293L219.326 91.1172C218.701 91.0391 217.715 91 216.367 91C215.195 91 214.131 91 213.174 91C212.217 91 211.523 91.0195 211.094 91.0586L211.064 91C211.143 90.8633 211.182 90.707 211.182 90.5312C211.182 90.3555 211.172 90.1797 211.152 90.0039C211.133 89.8281 211.074 89.4961 210.977 89.0078C210.898 88.5 210.762 87.7578 210.566 86.7812L209.775 82.7969L204.971 64.5449L200.4 82.709C199.463 86.4395 198.975 88.5879 198.936 89.1543C198.857 90.2285 198.867 90.8535 198.965 91.0293L198.906 91.1172ZM237.9 91.2344C236.221 91.0781 234.258 91 232.012 91H229.697L242.441 55.2871C243.008 53.6855 243.291 52.7578 243.291 52.5039C243.291 52.2305 243.281 52.0645 243.262 52.0059L243.291 51.9473C244.561 52.0059 245.908 52.0352 247.334 52.0352C248.506 52.0352 249.912 52.0156 251.553 51.9766L251.582 52.0352C251.543 52.1133 251.523 52.2207 251.523 52.3574C251.523 52.7285 251.816 53.7148 252.402 55.3164L265.41 91.0879C265.02 91.0684 264.561 91.0586 264.033 91.0586C264.033 91.0586 263.525 91.0391 262.51 91C262.021 91 261.582 91 261.191 91H256.65L253.896 82.5625H240.654L237.9 91.2344ZM251.611 75.5312L247.188 61.9082L242.881 75.5312H251.611ZM282.754 75.8535C282.168 75.8926 281.543 75.9121 280.879 75.9121C280.215 75.9121 279.229 75.8633 277.92 75.7656V91H270.156V51.8301C272.891 51.4785 276.25 51.3027 280.234 51.3027C285.664 51.3027 289.707 52.3086 292.363 54.3203C295.039 56.3125 296.377 59.3984 296.377 63.5781C296.377 66.8203 295.156 69.5938 292.715 71.8984C291.914 72.6406 290.996 73.2852 289.961 73.832L295.938 86.4297C297.109 89.0273 298.008 90.5703 298.633 91.0586L298.486 91.2051C296.592 90.8926 293.613 90.9023 289.551 91.2344L282.754 75.8535ZM280.791 58.2168C279.795 58.2168 278.838 58.2656 277.92 58.3633V69.5547C278.877 69.6914 280 69.7598 281.289 69.7598C282.578 69.7598 283.662 69.6523 284.541 69.4375C285.42 69.2031 286.182 68.8516 286.826 68.3828C288.213 67.3477 288.906 65.7949 288.906 63.7246C288.906 61.6543 288.184 60.1992 286.738 59.3594C285.391 58.5977 283.408 58.2168 280.791 58.2168ZM324.736 83.9688C325.947 83.9688 326.787 83.8516 327.256 83.6172L327.373 83.6465L327.08 91H305.137V51.8301C305.664 51.8691 306.25 51.8984 306.895 51.918L308.945 51.9766C310.312 52.0156 311.797 52.0352 313.398 52.0352C317.871 52.0352 322.295 51.957 326.67 51.8008C326.455 53.5195 326.348 55.8145 326.348 58.6855C326.348 58.998 326.367 59.2324 326.406 59.3887L326.348 59.4766C325.332 59.1836 323.887 59.0371 322.012 59.0371H312.783V66.5078H319.727C321.875 66.5078 323.164 66.4492 323.594 66.332L323.682 73.5684C322.744 73.4707 321.533 73.4219 320.049 73.4219H312.783V83.9688H324.736Z" fill="black"/>
</svg>
